Coordinates
version=1
nRows=10
nColumns=40
inDegrees=yes

Units are S.I. units (second, meters, Newtons, ...)
If the header above contains a line with 'inDegrees', this indicates whether rotational values are in degrees (yes) or radians (no).

endheader
time	pelvis_tilt	pelvis_list	pelvis_rotation	pelvis_tx	pelvis_ty	pelvis_tz	hip_flexion_r	hip_adduction_r	hip_rotation_r	knee_angle_r	knee_angle_r_beta	ankle_angle_r	subtalar_angle_r	mtp_angle_r	hip_flexion_l	hip_adduction_l	hip_rotation_l	knee_angle_l	knee_angle_l_beta	ankle_angle_l	subtalar_angle_l	mtp_angle_l	lumbar_extension	lumbar_bending	lumbar_rotation	arm_flex_r	arm_add_r	arm_rot_r	elbow_flex_r	pro_sup_r	wrist_flex_r	wrist_dev_r	arm_flex_l	arm_add_l	arm_rot_l	elbow_flex_l	pro_sup_l	wrist_flex_l	wrist_dev_l
      0.09000000	     -7.03387717	      7.39093052	    -19.88489478	     -0.19142324	      0.80363321	     -0.19217253	    -13.47108089	    -17.39321914	    -11.13057143	     30.64766273	      0.53490262	    -27.18771261	      0.00000000	      0.00000000	     41.64844033	     -7.05026065	    -23.77335082	     25.82191583	      0.45067745	     -4.99501723	      0.00000000	      0.00000000	      8.69202971	     -4.82595404	     14.44679274	     16.38885726	     -6.40332055	     22.41448108	     82.32472223	     89.12067139	     -3.10899994	      3.50203273	    -36.58816902	    -11.29839847	      7.30107163	     15.52976173	     88.75678055	    -22.08487113	      8.07134937
      0.10000000	     -6.99556728	      8.13992576	    -18.74411583	     -0.16780844	      0.80346017	     -0.19488915	    -11.77894074	    -18.38883272	    -10.29297230	     34.63516529	      0.60449767	    -27.29555935	      0.00000000	      0.00000000	     41.59431501	     -5.29616986	    -22.76858696	     27.91841210	      0.48726821	     -5.26792776	      0.00000000	      0.00000000	      8.68938992	     -5.89755583	     12.91312709	     15.51400672	     -6.26037689	     22.70963972	     81.58700782	     89.11958227	     -3.06488234	      3.74989853	    -35.80733204	    -11.41519157	      7.17110138	     16.09633670	     88.79206508	    -22.05034282	      8.17750735
      0.11000000	     -7.20768926	      8.80320817	    -17.59931547	     -0.14518239	      0.80358305	     -0.19763082	     -9.35218234	    -19.03234467	     -8.85124771	     38.94044816	      0.67963903	    -26.46446042	      0.00000000	      0.00000000	     41.68337930	     -3.65845261	    -21.72466575	     29.80494695	      0.52019446	     -5.15040041	      0.00000000	      0.00000000	      8.81138467	     -6.78396885	     11.40920487	     14.57968192	     -6.15867404	     22.95089679	     80.56785487	     89.11895878	     -3.01216966	      4.03333052	    -34.77587835	    -11.54585741	      6.95467400	     16.77340400	     88.83093797	    -22.08062947	      8.37753979
      0.12000000	     -7.53676261	      9.33473674	    -16.47426187	     -0.12334792	      0.80424471	     -0.20074037	     -6.41815904	    -19.37767572	     -7.03771039	     43.32246186	      0.75611960	    -25.09977361	      0.00000000	      0.00000000	     41.72915897	     -2.07943297	    -20.60203901	     31.42221615	      0.54842113	     -4.60970573	      0.00000000	      0.00000000	      8.91076850	     -7.41413369	     10.02508262	     13.52116130	     -6.18261514	     22.98394652	     79.40617151	     89.12592434	     -3.01945918	      4.22673449	    -33.41069837	    -11.65997750	      6.85246356	     17.51932321	     88.89012626	    -22.10792499	      8.67721908
      0.13000000	     -7.92235907	      9.78856475	    -15.37210695	     -0.10234679	      0.80550566	     -0.20373858	     -3.11251640	    -19.46259251	     -5.09060128	     47.65488646	      0.83173467	    -22.80189149	      0.00000000	      0.00000000	     41.64196602	     -0.55257149	    -19.49863920	     32.71576452	      0.57099781	     -3.66624165	      0.00000000	      0.00000000	      8.96318307	     -7.93027713	      8.76819861	     12.36974308	     -6.22194403	     22.83598589	     78.01426919	     89.12990770	     -3.15098709	      4.32871879	    -31.72343714	    -11.86614214	      7.01845520	     18.32463198	     88.93993073	    -22.09154291	      9.03481205
      0.14000000	     -7.90713010	     10.05403492	    -14.26068213	     -0.08186144	      0.80800184	     -0.20673087	     -0.18008294	    -19.35771384	     -3.40750070	     51.56700078	      0.90001395	    -19.74267895	      0.00000000	      0.00000000	     40.87885182	      1.01222825	    -18.35611215	     33.63807151	      0.58709510	     -2.28898176	      0.00000000	      0.00000000	      8.40710659	     -8.34605480	      7.53360157	     11.19088463	     -6.29910296	     22.43144645	     76.49008707	     89.13238405	     -3.34591343	      4.39310590	    -29.67492350	    -12.12957288	      7.37350023	     19.24573645	     88.98958009	    -22.05331707	      9.17787741
      0.15000000	     -8.78562354	     10.50761375	    -13.41148136	     -0.06206350	      0.80979401	     -0.20933814	      4.23834725	    -19.09875953	     -1.23202360	     55.39809314	      0.96687912	    -16.36392840	      0.00000000	      0.00000000	     40.89847014	      2.29607412	    -17.51639894	     34.27169356	      0.59815389	     -0.83435654	      0.00000000	      0.00000000	      9.05959510	     -8.61204004	      6.90783189	      9.67663542	     -6.35162319	     21.78221361	     74.57306364	     89.14076611	     -3.87758533	      4.24660558	    -27.61235923	    -12.45122536	      7.79437876	     20.36381910	     89.03669547	    -22.01280075	      9.75183406
      0.16000000	     -8.81755877	     10.64621760	    -12.44607386	     -0.04243523	      0.81340253	     -0.21216406	      7.45582401	    -18.70421392	      0.27206222	     58.33032961	      1.01805631	    -12.49925164	      0.00000000	      0.00000000	     39.68944755	      3.71262011	    -16.53181059	     34.41823557	      0.60071153	      0.96897028	      0.00000000	      0.00000000	      8.51023139	     -8.80607250	      6.03218867	      8.30139629	     -6.45632712	     20.90203047	     72.63353845	     89.14288540	     -4.26846651	      4.23734671	    -25.22114754	    -12.74122369	      8.20730123	     21.70559624	     89.08791786	    -21.93873800	      9.79655545
      0.17000000	     -9.64976466	     11.07860395	    -11.87524776	     -0.02317952	      0.81621705	     -0.21441010	     11.98291384	    -18.31920486	      2.22298807	     60.96407233	      1.06402379	     -8.53187549	      0.00000000	      0.00000000	     39.15839987	      4.89020750	    -16.02605360	     34.21896423	      0.59723359	      2.59829654	      0.00000000	      0.00000000	      9.16967835	     -8.99428063	      6.09863750	      6.44709642	     -6.54999415	     19.64443646	     70.50538761	     89.14621547	     -5.21202246	      3.82848045	    -22.77944302	    -13.13292339	      8.82939868	     23.27431695	     89.13394145	    -21.79107480	     10.31951980
      0.18000000	    -10.00279970	     11.27742922	    -11.28108178	     -0.00378885	      0.82013275	     -0.21661538	     15.68699885	    -17.78722461	      3.69261478	     62.63324460	      1.09315634	     -4.54187921	      0.00000000	      0.00000000	     37.82206047	      6.03221636	    -15.49557199	     33.61327165	      0.58666226	      4.27022109	      0.00000000	      0.00000000	      9.21685887	     -9.08602277	      6.11776310	      4.60798657	     -6.61446709	     18.11011536	     68.25444513	     89.14750028	     -6.23713825	      3.47230283	    -20.18703985	    -13.46809348	      9.47065765	     25.06800524	     89.17863435	    -21.51051560	     10.52302354
